<?xml version="1.0" encoding="UTF-8"?>
<svg xmlns="http://www.w3.org/2000/svg" width="532" height="134" viewBox="0 0 532 134">
  <text x="266" y="26" text-anchor="middle" font-family="'Courier New',monospace" font-size="13" font-weight="700" fill="#D4AF37" letter-spacing="1">◆ Programming Languages ◆</text>
  <line x1="34" y1="34" x2="498" y2="34" stroke="#D4AF37" stroke-width="0.5" opacity="0.25"/>
  <rect x="14" y="46" width="120" height="34" rx="5" fill="#1a2e1a" stroke="#D4AF37" stroke-width="0.6" stroke-opacity="0.5"/>
  <rect x="20" y="51" width="24" height="24" rx="4" fill="#A8B9CC" opacity="0.85"/>
  <text x="32" y="68" text-anchor="middle" font-family="'Courier New',monospace" font-size="10" font-weight="700" fill="#fff">C</text>
  <text x="50" y="68" font-family="'Courier New',monospace" font-size="12" fill="#E2DFD2">C</text>
  <rect x="142" y="46" width="120" height="34" rx="5" fill="#1a2e1a" stroke="#D4AF37" stroke-width="0.6" stroke-opacity="0.5"/>
  <rect x="148" y="51" width="24" height="24" rx="4" fill="#00599C" opacity="0.85"/>
  <text x="160" y="68" text-anchor="middle" font-family="'Courier New',monospace" font-size="10" font-weight="700" fill="#fff">C+</text>
  <text x="178" y="68" font-family="'Courier New',monospace" font-size="12" fill="#E2DFD2">C++</text>
  <rect x="270" y="46" width="120" height="34" rx="5" fill="#1a2e1a" stroke="#D4AF37" stroke-width="0.6" stroke-opacity="0.5"/>
  <rect x="276" y="51" width="24" height="24" rx="4" fill="#ED8B00" opacity="0.85"/>
  <text x="288" y="68" text-anchor="middle" font-family="'Courier New',monospace" font-size="10" font-weight="700" fill="#fff">Jv</text>
  <text x="306" y="68" font-family="'Courier New',monospace" font-size="12" fill="#E2DFD2">Java</text>
  <rect x="398" y="46" width="120" height="34" rx="5" fill="#1a2e1a" stroke="#D4AF37" stroke-width="0.6" stroke-opacity="0.5"/>
  <rect x="404" y="51" width="24" height="24" rx="4" fill="#3776AB" opacity="0.85"/>
  <text x="416" y="68" text-anchor="middle" font-family="'Courier New',monospace" font-size="10" font-weight="700" fill="#fff">Py</text>
  <text x="434" y="68" font-family="'Courier New',monospace" font-size="12" fill="#E2DFD2">Python</text>
  <rect x="14" y="88" width="120" height="34" rx="5" fill="#1a2e1a" stroke="#D4AF37" stroke-width="0.6" stroke-opacity="0.5"/>
  <rect x="20" y="93" width="24" height="24" rx="4" fill="#F7DF1E" opacity="0.85"/>
  <text x="32" y="110" text-anchor="middle" font-family="'Courier New',monospace" font-size="10" font-weight="700" fill="#1a1a1a">JS</text>
  <text x="50" y="110" font-family="'Courier New',monospace" font-size="12" fill="#E2DFD2">JavaScript</text>
  <rect x="142" y="88" width="120" height="34" rx="5" fill="#1a2e1a" stroke="#D4AF37" stroke-width="0.6" stroke-opacity="0.5"/>
  <rect x="148" y="93" width="24" height="24" rx="4" fill="#3178C6" opacity="0.85"/>
  <text x="160" y="110" text-anchor="middle" font-family="'Courier New',monospace" font-size="10" font-weight="700" fill="#fff">TS</text>
  <text x="178" y="110" font-family="'Courier New',monospace" font-size="12" fill="#E2DFD2">TypeScript</text>
</svg>
